PathFileType	4	(X/Y/Z)	Patient4_TMGait_0pt3_01_left_20.trc.trc
DataRate	CameraRate	NumFrames	NumMarkers	Units	OrigDataRate	OrigDataStartFrame	OrigNumFrames
52.434456928839	52.434456928839	5	33	mm	52.434456928839	18	       141
Frame#	Time	Sacral			L.Shoulder			Chest			R.Shoulder			Neck			R.ASIS			L.ASIS			R.Thigh.Superior			R.Thigh.Lateral			R.Thigh.Inferior			R.Patella			L.Thigh.Superior			L.Thigh.Lateral			L.Thigh.Inferior			L.Patella			L.Shank.Superior			L.Shank.Lateral			L.Shank.Inferior			R.Shank.Superior			R.Shank.Lateral			R.Shank.Inferior			R.Heel			R.Midfoot.Superior			R.Midfoot.Lateral			R.Toe			L.Heel			L.Midfoot.Lateral			L.Midfoot.Superior			L.Toe			L.Elbow			L.Wrist			R.Elbow			R.Wrist			
		X1	Y1	Z1	X2	Y2	Z2	X3	Y3	Z3	X4	Y4	Z4	X5	Y5	Z5	X6	Y6	Z6	X7	Y7	Z7	X8	Y8	Z8	X9	Y9	Z9	X10	Y10	Z10	X11	Y11	Z11	X12	Y12	Z12	X13	Y13	Z13	X14	Y14	Z14	X15	Y15	Z15	X16	Y16	Z16	X17	Y17	Z17	X18	Y18	Z18	X19	Y19	Z19	X20	Y20	Z20	X21	Y21	Z21	X22	Y22	Z22	X23	Y23	Z23	X24	Y24	Z24	X25	Y25	Z25	X26	Y26	Z26	X27	Y27	Z27	X28	Y28	Z28	X29	Y29	Z29	X30	Y30	Z30	X31	Y31	Z31	X32	Y32	Z32	X33	Y33	Z33	

18	37.724214285714	723.190673418075	993.689865111626	614.275467108513	853.892565195678	1419.915368980494	398.371671856379	990.142308010076	1355.028726812664	534.500348734599	947.097894741570	1435.030797309295	719.361812628251	876.010640808672	1485.330865909655	554.139214816513	967.696611115171	931.326152401400	690.968666068439	911.283437250429	957.075323627084	422.245979165292	985.899553383767	724.080286548331	651.331196371784	900.333326132143	614.060365584294	710.951365593584	965.755950535199	561.614273009410	622.927936634348	956.752579784982	467.254356886275	625.872841158173	1000.649066334333	775.972878543850	447.735991930010	955.349735254924	647.619251269687	369.056271364119	1059.465281322350	589.859470919859	429.522446580270	1086.352298917766	519.109156114643	420.239155894346	1057.860826584693	444.638728902986	406.409159428917	970.217447806101	330.428796095908	350.002748272365	1040.459485918821	215.163149698546	396.808142801461	907.273879449480	384.127116884754	629.254223721179	817.244311804318	292.367523262681	687.540199792823	837.306544135149	195.950420915892	618.506634633487	677.404243503272	45.545033996526	578.067595549379	848.285456045793	96.117065947271	623.944145829997	755.904286981179	37.481063969934	656.824346276297	964.287293218225	40.082476154305	659.852176222135	930.457637151017	46.996898342308	428.587070248553	1001.447309580626	48.591762336104	345.960135294879	1082.286651955821	116.176987696474	368.627272915144	1209.739383929723	73.966578820798	334.091027007626	703.104911867443	1095.679536073460	323.001447404016	678.106463359793	837.579461136322	347.494805293365	1116.158544021766	1143.204393459573	841.453299568839	1371.898017705517	1118.331956325405	804.391226534888	
19	37.743285714286	723.716006751151	994.668268691102	613.067056589385	850.986802741613	1420.298208178498	395.286142052105	989.176544060377	1355.712987041894	529.664083946129	948.395211981930	1436.240112332033	714.802037029249	875.016866036961	1485.824132763987	550.530006276787	968.432242975497	931.823588963579	688.047261878664	910.220966620361	957.324478563878	419.627557899784	983.155570312389	723.606706071462	649.102134704752	895.945367052463	614.898489580050	709.675972674969	959.798747877168	561.280005992227	621.566355768310	949.412869022216	467.501054339566	624.741500098486	998.747399629029	774.929051581524	444.226626050054	950.870918512647	646.424340712382	366.808364189709	1055.243211566391	588.277099395653	426.223433440978	1081.639027204635	518.448727407690	417.963619453854	1054.707380981582	444.151638616387	404.599005352429	969.924067714312	327.930610833611	347.794473602687	1042.227733975210	214.261747964346	395.545838413204	900.365918325656	384.629299222504	628.598231171270	810.696099909018	292.749734355157	687.209638320964	831.033465992941	196.215004633133	618.314386684256	671.524361503979	45.390824535288	578.123337876552	842.407013479571	96.087947818296	623.951459278804	750.059370232666	37.384001709249	656.892656938524	958.455816309513	40.139725314779	659.823965230362	934.767608495917	45.156176579221	426.682994573935	1006.861900135941	46.767022133891	344.920888117777	1086.808018394700	115.082293497852	368.245282865354	1215.158418568077	73.611032155770	335.732358598970	694.116405419786	1099.010916680636	323.836960330439	666.465386772459	841.296775469195	351.239947174341	1124.565022477704	1149.606169237808	835.445388770159	1380.071978659545	1135.385926539617	793.723298594299	
20	37.762357142857	724.275594058631	995.175849909582	611.534187841920	848.487307141859	1420.147295283868	391.852459295201	988.385057380719	1355.904991585733	524.676373200359	949.598369771899	1436.974022774064	710.001654034332	874.205755687026	1485.870486508356	546.546604011486	969.255394930288	931.957232571851	685.003598505058	909.305112817262	957.030888568018	416.873832075543	980.868148666129	722.918638142194	646.771570790247	892.187255142861	615.421670855399	708.223242929910	954.578179506197	560.741226890519	620.062760515785	942.877603471450	467.452337348821	623.459496195452	996.987701168911	773.308783018622	440.594789414332	946.416065057677	644.695596581534	364.660209436669	1051.142949221408	586.228142077872	422.942488949663	1076.823708347032	517.047943658622	415.710439690699	1051.210095910174	442.946875173954	402.769675350451	968.624702285414	325.122616030992	345.976592884906	1042.597043927236	212.822175445567	394.537722790825	894.120803152390	384.845718586741	627.784698714540	804.649396498933	293.028768313958	686.770728591910	825.044905127911	196.333880387561	618.039813854440	665.665018302172	45.267529297150	578.167056128540	836.537226943165	96.032192994006	623.896644413360	744.228348467414	37.300305920804	656.951291543514	952.644174370230	40.182219153951	659.801506389702	937.011308944617	43.360252642684	425.374240215603	1009.944018056379	44.843182817250	344.247229741883	1089.341325054974	113.451059466910	368.105923840650	1218.288548876288	72.224793003487	337.151854499353	686.606686904784	1101.377274072675	324.309974873729	656.912432872222	843.959498901953	354.666409096885	1132.269834801696	1155.276495286527	829.131426759523	1387.117117458376	1150.980827750273	783.231654621812	
21	37.781428571429	724.851827012268	995.235154237359	609.699720093162	846.377907518553	1419.499601171452	388.082385401301	987.764053376960	1355.632127599830	519.548088241813	950.718802951215	1437.244945777737	704.986858262130	873.573787634316	1485.501559803179	542.204685976297	970.166567164679	931.745002633930	681.809723299766	908.500936438108	956.245977189725	413.963714780188	979.098721259506	722.030600438159	644.299113135379	889.159474805461	615.615939454706	706.559637322552	950.203204356044	559.995481750789	618.366603214291	937.271095464402	467.089174920060	621.984773789589	995.425490595509	771.279698906594	436.887406311837	942.183326013983	642.594737598281	362.604259676676	1047.374021926958	583.909654746042	419.682374901102	1072.156732385226	515.086790422131	413.446926296766	1047.602037517489	441.167920946309	400.890891738010	966.509430164045	322.146718357805	344.496010966267	1041.721406007331	210.948266258584	393.742242248794	888.624718562314	384.764608791882	626.781703416282	799.173379927956	293.217171061392	686.206267766458	819.381739936185	196.315853878767	617.678318895259	659.835458676797	45.208776855938	578.210126415138	830.693266997814	95.952666959942	623.775830120471	738.420299051251	37.247466723643	657.004966727998	946.859452328692	40.201689627110	659.786957037836	937.288900737937	41.682115304727	424.624423980648	1010.780829940702	42.902611395782	343.888968785810	1089.979080832604	111.382029688399	368.157572543632	1219.232160355922	69.925392089278	338.272076110558	680.592458766349	1102.738917908273	324.341199291205	649.469735944722	845.533980811428	357.648590682201	1139.220099826562	1160.111359315056	822.555119926483	1393.105453099282	1164.990230346694	772.977063574886	
22	37.800500000000	725.433772640089	994.917639473566	607.587939268862	844.630849413447	1418.445816902283	384.003710200647	987.307456892619	1354.967225343931	514.291954037653	951.780471256685	1437.109385140159	699.788244927290	873.115940626529	1484.792087571145	537.537665186010	971.156985233539	931.239570577623	678.431648899234	907.774087170659	955.075577891832	410.871070982206	977.858552879806	720.979165300630	641.646726764794	886.889080870826	615.505167516704	704.659953403793	946.700991833305	559.064283098141	616.440219906406	932.628938665447	466.428113424281	620.290220977490	994.120639563277	769.063820818441	433.152555578372	938.386457631385	640.328045601728	360.609548460534	1044.140969439891	581.544675682067	416.438903186010	1067.895245738338	512.794941967858	411.142157325026	1044.133189945778	439.008275328432	398.943923804135	963.839467285365	319.186360986303	343.253806950375	1039.815122491454	208.796887548909	393.102784736932	883.893019854458	384.409258106713	625.572209361587	794.282045330763	293.345989185056	685.507068556305	814.054576865674	196.189644987406	617.232365685569	654.042762698803	45.252994365507	578.264677286765	824.891545173138	95.857646863205	623.592893210463	732.643334064109	37.246105594571	657.059894285513	941.105441699089	40.189524061344	659.782433600058	935.788654049348	40.210893173285	424.340893341748	1009.581033020403	41.051401961682	343.770999161681	1088.901617362731	109.032463628527	368.338125095038	1218.203184707860	66.930118132945	339.064003437819	676.055658927292	1103.131528727756	323.866048754357	644.137779047525	846.060017747317	360.054211007794	1145.380835457202	1164.060280115101	815.768487514950	1398.113662407462	1177.331147679125	763.011202828894	
